HIERARCHY
ROOT Hips
{
	OFFSET -0.001795 -0.223333 0.028219
	CHANNELS 6 Xposition Yposition Zposition Zrotation Yrotation Xrotation 
	JOINT LeftUpLeg
	{
		OFFSET 0.069520 -0.091406 -0.006815
		CHANNELS 3 Zrotation Yrotation Xrotation
		JOINT LeftLeg
		{
			OFFSET 0.034277 -0.375199 -0.004496
			CHANNELS 3 Zrotation Yrotation Xrotation
			JOINT LeftFoot
			{
				OFFSET -0.013596 -0.397961 -0.043693
				CHANNELS 3 Zrotation Yrotation Xrotation
				JOINT LeftToe
				{
					OFFSET 0.026358 -0.055791 0.119288
					CHANNELS 3 Zrotation Yrotation Xrotation
					End Site
					{
						OFFSET 0.000000 0.000000 0.000000
					}
				}
			}
		}
	}
	JOINT RightUpLeg
	{
		OFFSET -0.067670 -0.090522 -0.004320
		CHANNELS 3 Zrotation Yrotation Xrotation
		JOINT RightLeg
		{
			OFFSET -0.038290 -0.382569 -0.008850
			CHANNELS 3 Zrotation Yrotation Xrotation
			JOINT RightFoot
			{
				OFFSET 0.015774 -0.398415 -0.042312
				CHANNELS 3 Zrotation Yrotation Xrotation
				JOINT RightToe
				{
					OFFSET -0.025372 -0.048144 0.123348
					CHANNELS 3 Zrotation Yrotation Xrotation
					End Site
					{
						OFFSET 0.000000 0.000000 0.000000
					}
				}
			}
		}
	}
	JOINT Spine
	{
		OFFSET -0.002533 0.108963 -0.026696
		CHANNELS 3 Zrotation Yrotation Xrotation
		JOINT Spine1
		{
			OFFSET 0.005487 0.135180 0.001092
			CHANNELS 3 Zrotation Yrotation Xrotation
			JOINT Spine2
			{
				OFFSET 0.001457 0.052922 0.025425
				CHANNELS 3 Zrotation Yrotation Xrotation
				JOINT Neck
				{
					OFFSET -0.002778 0.213870 -0.042857
					CHANNELS 3 Zrotation Yrotation Xrotation
					JOINT Head
					{
						OFFSET 0.005152 0.064970 0.051349
						CHANNELS 3 Zrotation Yrotation Xrotation
						End Site
						{
							OFFSET 0.000000 0.000000 0.000000
						}
					}
				}
				JOINT LeftShoulder
				{
					OFFSET 0.078845 0.121749 -0.034090
					CHANNELS 3 Zrotation Yrotation Xrotation
					JOINT LeftArm
					{
						OFFSET 0.090977 0.030469 -0.008868
						CHANNELS 3 Zrotation Yrotation Xrotation
						JOINT LeftForeArm
						{
							OFFSET 0.259612 -0.012772 -0.027456
							CHANNELS 3 Zrotation Yrotation Xrotation
							JOINT LeftHand
							{
								OFFSET 0.249234 0.008986 -0.001171
								CHANNELS 3 Zrotation Yrotation Xrotation
								End Site
								{
									OFFSET 0.000000 0.000000 0.000000
								}
							}
						}
					}
				}
				JOINT RightShoulder
				{
					OFFSET -0.081759 0.118833 -0.038615
					CHANNELS 3 Zrotation Yrotation Xrotation
					JOINT RightArm
					{
						OFFSET -0.096012 0.032551 -0.009143
						CHANNELS 3 Zrotation Yrotation Xrotation
						JOINT RightForeArm
						{
							OFFSET -0.253742 -0.013329 -0.021401
							CHANNELS 3 Zrotation Yrotation Xrotation
							JOINT RightHand
							{
								OFFSET -0.255298 0.007772 -0.005559
								CHANNELS 3 Zrotation Yrotation Xrotation
								End Site
								{
									OFFSET 0.000000 0.000000 0.000000
								}
							}
						}
					}
				}
			}
		}
	}
}
MOTION
Frames: 11
Frame Time: 0.050000
0.000000 0.933572 0.000000 -1.622191 -4.443638 6.664968 10.048586 -0.115338 -15.411288 -11.192854 2.841236 18.600807 14.238452 27.192954 8.262179 0.000000 0.000000 0.000000 -9.373387 1.163882 -25.684181 6.556287 -0.798248 19.996742 -4.590023 -13.640617 8.755358 0.000000 0.000000 0.000000 6.822482 -2.135507 20.763147 -4.806464 1.630654 -25.359152 -3.329212 4.986548 28.142921 16.011553 -5.267646 -35.465123 0.000000 0.000000 0.000000 -20.569657 -18.677258 8.874504 -42.773448 -23.077630 0.724336 7.064304 -28.347687 -0.479737 0.000000 0.000000 0.000000 30.507713 3.288392 1.197601 49.977182 19.484696 0.323439 -4.836269 33.185726 0.577912 0.000000 0.000000 0.000000 
-0.001281 0.929889 -0.002905 -1.960973 -5.323479 7.830654 11.402409 0.137903 -17.848314 -13.148746 3.751162 20.685576 15.782797 29.397339 9.327658 0.000000 0.000000 0.000000 -9.406636 1.379012 -28.679748 6.923982 -0.855197 22.166259 -3.947872 -12.377646 8.228205 0.000000 0.000000 0.000000 7.020026 -2.272601 21.989726 -3.347501 1.285027 -25.440341 -4.500423 4.151145 27.902642 17.431405 -6.024512 -35.837515 0.000000 0.000000 0.000000 -22.855882 -19.371150 10.059162 -41.178026 -24.964573 1.122886 11.636239 -26.102089 -1.387580 0.000000 0.000000 0.000000 31.203314 3.985101 1.023007 50.041363 18.628463 0.180386 -6.023540 34.653967 0.169114 0.000000 0.000000 0.000000 
-0.003676 0.923724 -0.006196 -1.914851 -5.144404 7.711884 11.979651 0.286419 -19.814409 -14.103466 4.503607 24.275452 16.197050 30.210591 8.444613 0.000000 0.000000 0.000000 -9.702501 1.400115 -30.954211 7.800012 -1.167994 26.085777 -3.992877 -11.877195 5.748671 0.000000 0.000000 0.000000 7.510605 -2.523490 23.529936 -3.097791 1.228524 -24.273064 -4.752197 1.716923 27.257175 16.306103 -5.760347 -35.924047 0.000000 0.000000 0.000000 -23.662406 -20.676232 11.732229 -39.039818 -28.502129 1.930433 12.052696 -24.634034 -1.356144 0.000000 0.000000 0.000000 30.319436 4.557337 0.407423 49.600537 17.767685 0.162538 -6.139203 35.056535 -0.095120 0.000000 0.000000 0.000000 
-0.007569 0.917595 -0.009987 -2.076892 -6.497692 8.245838 13.307026 0.715913 -21.959633 -15.635540 5.690143 27.175861 17.482293 32.028543 8.921881 0.000000 0.000000 0.000000 -9.735555 1.715719 -34.219282 7.819937 -1.071119 29.489922 -3.332068 -10.521474 5.519223 0.000000 0.000000 0.000000 7.940623 -2.783680 26.210564 -3.444828 1.284221 -24.938551 -5.293227 0.038528 27.537932 16.907285 -6.031209 -37.256575 0.000000 0.000000 0.000000 -23.750529 -22.092579 13.459367 -37.605243 -30.948811 2.353842 14.902788 -24.589348 -1.886365 0.000000 0.000000 0.000000 31.001601 5.301074 -0.250475 48.291613 17.171435 0.189878 -6.403818 36.451779 -0.422447 0.000000 0.000000 0.000000 
-0.013081 0.908206 -0.014022 -1.708217 -7.487516 8.671321 13.853372 1.024976 -23.915362 -16.295499 6.605332 30.050522 17.674055 32.696151 7.441865 0.000000 0.000000 0.000000 -10.421070 1.834586 -37.060550 8.674278 -1.307373 32.325496 -4.087701 -12.057038 4.631077 0.000000 0.000000 0.000000 7.928750 -2.869843 28.182407 -2.608525 1.068825 -24.439911 -6.320701 -1.678765 26.862548 17.447435 -6.537871 -36.966744 0.000000 0.000000 0.000000 -25.906982 -24.155212 16.026546 -33.036912 -33.321472 2.199644 17.160514 -23.612689 -2.289322 0.000000 0.000000 0.000000 30.584717 6.371592 -0.496909 47.973784 15.801150 -0.005194 -7.308128 38.440147 -1.006049 0.000000 0.000000 0.000000 
-0.020406 0.899234 -0.018101 -1.395591 -9.014323 9.251113 15.167890 1.611070 -25.799036 -17.885718 8.071688 32.515414 17.799555 33.016577 6.822470 0.000000 0.000000 0.000000 -11.033745 2.086326 -40.119309 9.261121 -1.391713 35.386921 -3.729271 -10.990903 3.292838 0.000000 0.000000 0.000000 8.362438 -3.088539 31.193800 -2.659828 1.054823 -25.100898 -7.387498 -4.208622 26.184737 19.071371 -7.541111 -36.960618 0.000000 0.000000 0.000000 -27.486777 -25.022713 18.230843 -29.476658 -34.588679 1.682224 18.938027 -24.287415 -2.730273 0.000000 0.000000 0.000000 31.712605 7.230324 -1.578245 46.474984 13.707140 -0.254877 -7.618254 41.050520 -1.610597 0.000000 0.000000 0.000000 
-0.029142 0.888207 -0.021651 -1.252876 -10.356869 10.040967 16.241508 2.225552 -27.767924 -18.404478 9.066236 34.706037 18.319676 33.929171 6.324514 0.000000 0.000000 0.000000 -11.386817 2.444790 -43.258223 10.104129 -1.611933 37.985754 -4.121216 -11.680981 2.034215 0.000000 0.000000 0.000000 8.640520 -3.220538 33.837386 -2.193970 0.909253 -24.791009 -8.478698 -6.818895 24.656894 19.726732 -8.514063 -34.919654 0.000000 0.000000 0.000000 -28.973317 -25.431946 20.154557 -25.689520 -35.739938 1.092558 21.893569 -23.550712 -3.239993 0.000000 0.000000 0.000000 32.289983 8.256853 -2.490450 45.769608 11.541095 -0.405558 -8.449615 44.960634 -2.611174 0.000000 0.000000 0.000000 
-0.038917 0.876241 -0.024125 -1.163179 -11.472269 10.761876 17.609026 3.018964 -29.908402 -19.290612 10.572462 38.034314 18.861482 34.986099 5.439748 0.000000 0.000000 0.000000 -11.285664 2.993468 -46.747048 10.676855 -1.774638 41.611636 -3.939890 -10.855754 0.507304 0.000000 0.000000 0.000000 9.099702 -3.415009 36.661800 -1.798311 0.808021 -25.596474 -9.547384 -9.477411 24.400947 20.519000 -9.599617 -33.122380 0.000000 0.000000 0.000000 -29.238173 -25.613726 21.515237 -23.016249 -35.505411 0.409702 25.397890 -24.103995 -4.027746 0.000000 0.000000 0.000000 34.022603 9.133070 -3.754180 43.448967 9.479595 -0.475050 -9.278568 48.843186 -3.696634 0.000000 0.000000 0.000000 
-0.048538 0.862792 -0.025020 -1.709278 -13.098224 11.389934 19.445207 4.128796 -31.708345 -19.530840 12.206531 42.215320 19.843903 36.350343 5.549202 0.000000 0.000000 0.000000 -10.864673 3.836991 -49.996197 11.450046 -1.961246 44.354438 -4.036465 -11.004769 -0.237635 0.000000 0.000000 0.000000 9.906471 -3.611734 38.965766 -2.004587 0.807530 -25.602735 -9.971431 -11.883213 23.655326 19.807962 -10.038886 -31.008881 0.000000 0.000000 0.000000 -29.903776 -25.080236 22.483557 -20.427930 -34.602978 -0.281513 28.469970 -23.629494 -4.587921 0.000000 0.000000 0.000000 35.660333 10.174742 -4.923016 41.184287 7.294489 -0.495080 -10.548479 53.061346 -5.121360 0.000000 0.000000 0.000000 
-0.057246 0.850770 -0.024799 -1.932988 -13.921274 11.925848 21.254195 5.261235 -33.604086 -19.904768 13.839555 46.399694 19.337828 36.015894 3.858307 0.000000 0.000000 0.000000 -10.896344 4.352114 -52.689385 12.644941 -2.540840 47.077253 -4.345732 -11.536633 -1.444907 0.000000 0.000000 0.000000 10.272676 -3.735810 41.354401 -1.510927 0.672359 -25.286347 -10.450773 -14.415939 22.999728 18.518580 -10.000741 -29.416319 0.000000 0.000000 0.000000 -29.722978 -25.387833 23.519390 -18.304640 -33.961403 -0.702141 32.173911 -22.801877 -5.136145 0.000000 0.000000 0.000000 37.286906 11.091977 -6.083134 38.119681 5.382309 -0.408742 -12.943366 58.037233 -7.285284 0.000000 0.000000 0.000000 
-0.064866 0.840103 -0.024268 -2.191846 -13.953689 12.671369 22.775684 6.320922 -35.923830 -19.734210 15.112618 51.141911 18.810633 34.737954 4.842582 0.000000 0.000000 0.000000 -11.154132 4.577532 -55.189318 14.284689 -3.584044 48.853715 -4.729302 -12.631790 -1.599846 0.000000 0.000000 0.000000 10.989839 -4.113097 42.714038 -1.264944 0.623375 -25.832539 -11.258872 -15.960255 23.097401 16.773513 -9.504084 -28.690148 0.000000 0.000000 0.000000 -29.555367 -25.258209 23.870272 -15.749640 -33.261424 -1.165929 36.305804 -23.443984 -6.138564 0.000000 0.000000 0.000000 39.011204 11.175773 -7.305756 35.944416 3.621083 -0.498615 -13.466441 60.905157 -7.974905 0.000000 0.000000 0.000000 
